<svg xmlns="http://www.w3.org/2000/svg" height="638pt" version="1.1" viewBox="-108 0 638 638.75099" width="638pt">
<g id="surface1">
<path d="M 421.789062 318.191406 C 419.070312 309.648438 412.890625 302.636719 404.757812 298.859375 L 265.074219 234.210938 C 265.023438 215.230469 254.886719 197.699219 238.457031 188.195312 L 252.296875 34.808594 C 253.882812 17.246094 240.929688 1.714844 223.363281 0.132812 C 222.40625 0.0429688 221.453125 0 220.496094 0 L 203.1875 0 C 185.546875 0.00390625 171.253906 14.308594 171.257812 31.945312 C 171.257812 32.90625 171.300781 33.859375 171.390625 34.808594 L 185.226562 188.230469 C 168.808594 197.730469 158.675781 215.238281 158.613281 234.210938 L 18.929688 298.859375 C 2.914062 306.257812 -4.066406 325.234375 3.324219 341.246094 C 3.738281 342.136719 4.191406 343.011719 4.683594 343.859375 L 13.339844 358.847656 C 17.824219 366.617188 25.371094 372.144531 34.128906 374.074219 C 36.375 374.570312 38.664062 374.820312 40.964844 374.820312 C 47.566406 374.820312 54.007812 372.78125 59.40625 368.984375 L 179.074219 284.667969 L 158.613281 627.464844 C 158.261719 633.335938 162.730469 638.375 168.601562 638.730469 C 168.820312 638.746094 169.039062 638.75 169.261719 638.75 L 254.425781 638.75 C 260.304688 638.761719 265.078125 634.003906 265.089844 628.121094 C 265.089844 627.902344 265.082031 627.683594 265.074219 627.464844 L 244.628906 284.667969 L 364.304688 368.984375 C 369.699219 372.78125 376.140625 374.820312 382.738281 374.820312 C 385.039062 374.820312 387.328125 374.566406 389.578125 374.074219 C 398.332031 372.144531 405.882812 366.617188 410.367188 358.847656 L 419.019531 343.859375 C 423.5 336.070312 424.507812 326.757812 421.789062 318.191406 Z M 195.316406 24.75 C 197.332031 22.527344 200.191406 21.273438 203.1875 21.292969 L 220.496094 21.292969 C 226.375 21.265625 231.160156 26.011719 231.183594 31.894531 C 231.183594 32.226562 231.171875 32.5625 231.140625 32.894531 L 217.6875 181.308594 C 213.796875 180.867188 209.863281 180.867188 205.976562 181.308594 L 192.574219 32.894531 C 192.304688 29.917969 193.300781 26.960938 195.316406 24.75 Z M 200.472656 204.488281 C 206.53125 202.105469 213.199219 201.730469 219.484375 203.421875 C 220.816406 203.726562 222.125 204.121094 223.402344 204.589844 C 235.648438 209.320312 243.738281 221.082031 243.777344 234.210938 C 243.761719 235.789062 243.632812 237.363281 243.382812 238.925781 C 243.382812 239.035156 243.289062 239.109375 243.265625 239.214844 C 242.71875 243.070312 241.453125 246.792969 239.523438 250.179688 C 239.433594 250.316406 239.320312 250.433594 239.234375 250.570312 C 237.332031 253.78125 234.851562 256.609375 231.921875 258.917969 C 231.832031 258.980469 231.8125 259.089844 231.726562 259.152344 C 230.484375 260.117188 229.1875 261.007812 227.84375 261.828125 C 217.992188 267.535156 205.847656 267.535156 196 261.828125 C 194.605469 261.003906 193.265625 260.097656 191.988281 259.113281 C 191.910156 259.050781 191.890625 258.941406 191.808594 258.878906 C 188.722656 256.496094 186.132812 253.542969 184.164062 250.179688 C 182.222656 246.796875 180.945312 243.074219 180.394531 239.214844 C 180.394531 239.097656 180.289062 239.011719 180.269531 238.902344 C 180.039062 237.347656 179.917969 235.777344 179.902344 234.210938 C 179.953125 221 188.128906 209.1875 200.472656 204.488281 Z M 47.175781 351.535156 C 44.742188 353.296875 41.667969 353.921875 38.738281 353.238281 C 35.816406 352.605469 33.300781 350.757812 31.820312 348.160156 L 23.125 333.214844 C 20.179688 328.121094 21.921875 321.613281 27.015625 318.667969 C 27.292969 318.507812 27.578125 318.363281 27.871094 318.226562 L 163.070312 255.648438 C 163.761719 257.234375 164.570312 258.789062 165.425781 260.320312 C 165.53125 260.515625 165.621094 260.714844 165.722656 260.894531 C 166.691406 262.582031 167.757812 264.203125 168.917969 265.765625 Z M 180.566406 617.460938 L 200.3125 286.148438 C 201.28125 286.363281 202.261719 286.480469 203.242188 286.640625 C 203.996094 286.769531 204.726562 286.914062 205.488281 287.011719 C 207.296875 287.230469 209.113281 287.347656 210.9375 287.378906 C 211.242188 287.378906 211.546875 287.441406 211.84375 287.441406 C 212.140625 287.441406 212.425781 287.441406 212.714844 287.441406 C 214.550781 287.410156 216.390625 287.285156 218.21875 287.066406 C 218.917969 286.984375 219.625 286.832031 220.347656 286.714844 C 221.410156 286.542969 222.378906 286.425781 223.390625 286.203125 L 243.121094 617.460938 Z M 400.5625 333.214844 L 391.90625 348.117188 C 390.425781 350.714844 387.910156 352.5625 384.984375 353.195312 C 382.0625 353.878906 378.988281 353.257812 376.554688 351.496094 L 254.722656 265.71875 C 255.878906 264.152344 256.945312 262.515625 257.914062 260.824219 C 258.011719 260.675781 258.066406 260.507812 258.148438 260.355469 C 259.027344 258.816406 259.828125 257.230469 260.546875 255.609375 L 395.746094 318.179688 C 401.082031 320.652344 403.40625 326.976562 400.941406 332.3125 C 400.804688 332.605469 400.660156 332.894531 400.496094 333.171875 Z M 400.5625 333.214844 " style=" stroke:none;fill-rule:nonzero;fill:rgb(0%,0%,0%);fill-opacity:1;" />
</g>
</svg>